# xmcd CD database file
#
# Track frame offsets:
#	150
#	16130
#	32550
#	50979
#	80930
#	100022
#	122842
#	145479
#	156752
#	176517
#	195558
#	207723
#	231090
#	242093
#	257231
#	273769
#	285025
#	298060
#	307590
#	318758
#
# Disc length: 4448 seconds
#
# Revision: 0
# Processed by: cddbd v1.5.1PL0 Copyright (c) Steve Scherf et al.
# Submitted via: CDex 1.51
#
DISCID=1a115e14
DTITLE=Uschi Brüning - Dein name
DYEAR=1900
DGENRE=Jazz
TTITLE0=I Never Loved A Man
TTITLE1=Son of a Preacher Man
TTITLE2=Dein Name
TTITLE3=Eifersucht
TTITLE4=Komm nie wieder
TTITLE5=Jemand
TTITLE6=Reverend Lee
TTITLE7=Ich steig auf's Dach
TTITLE8=Ohne Lieder leben
TTITLE9=Hochzeitsnacht
TTITLE10=Einer wie Du
TTITLE11=KOmm in die Stadt
TTITLE12=The girl from Ipanema
TTITLE13=Walking
TTITLE14=You are the sunshine if my life
TTITLE15=You are so beautiful
TTITLE16=Fool on the hill
TTITLE17=My funny Valentine
TTITLE18=Blues für Carmell
TTITLE19=September
EXTD=
EXTT0=
EXTT1=
EXTT2=
EXTT3=
EXTT4=
EXTT5=
EXTT6=
EXTT7=
EXTT8=
EXTT9=
EXTT10=
EXTT11=
EXTT12=
EXTT13=
EXTT14=
EXTT15=
EXTT16=
EXTT17=
EXTT18=
EXTT19=
PLAYORDER=
